PathFileType	4	(X/Y/Z)	D:\TRACE\spotREDO_2-26-24\spot_Both_Motion_3_9-v60.trc
DataRate	CameraRate	NumFrames	NumMarkers	Units	OrigDataRate	OrigDataStartFrame	OrigNumFrames
100.00	100.00	      13	9	mm	100.00	6126	      7000
Frame#	Time	front left toe			Front right toe			aft left toe			aft right toe			Arm			FL body			FR body			AL Body			AR Body			
		X1	Y1	Z1	X2	Y2	Z2	X3	Y3	Z3	X4	Y4	Z4	X5	Y5	Z5	X6	Y6	Z6	X7	Y7	Z7	X8	Y8	Z8	X9	Y9	Z9	

6126	61.250	-175.21976	110.58366	-399.42841	244.50493	38.16203	-461.18494	-153.64406	14.49771	147.19971	267.99002	21.16025	116.98348	45.21365	747.95770	-716.31891	-48.49489	607.31439	-479.30075	106.68118	613.47498	-485.32675	-20.23629	550.13440	402.40591	125.88079	545.11011	399.08701	
6127	61.260	-175.35727	110.57068	-399.14117	244.30289	38.13092	-461.28821	-153.67830	14.33805	147.29591	268.01422	21.20989	116.97498	46.13282	747.73615	-716.21979	-48.80354	607.32251	-478.86191	106.54318	613.35645	-484.77426	-20.57590	549.92548	403.00107	125.78744	545.13599	399.47610	
6128	61.270	-173.97655	113.21056	-399.66824	244.10258	38.10395	-461.40704	-153.87762	14.11552	147.47173	267.96768	21.23769	117.02553	47.66754	747.10962	-716.40405	-49.25344	607.36768	-478.27274	105.83735	613.62732	-484.49677	-20.97235	549.60278	403.35580	125.51405	544.69574	399.97287	
6129	61.280	-171.93697	119.04156	-401.04697	243.90421	38.08089	-461.54086	-153.86072	13.91311	147.38960	267.94101	21.21951	116.93525	48.82985	746.27979	-716.84912	-49.87974	607.50916	-477.98795	105.45255	613.77057	-484.10083	-21.44471	549.15417	403.66757	125.42875	544.39966	400.10980	
6130	61.290	-169.21695	127.39727	-404.24850	243.70789	38.06149	-461.68900	-153.93544	13.83643	147.36464	267.85602	21.22252	116.95162	50.49771	744.96948	-718.06958	-50.40394	607.46417	-477.70743	105.31979	613.72949	-483.69806	-21.78922	548.85107	403.95529	127.92571	543.56909	401.74213	
6131	61.300	-166.31201	136.90811	-409.23099	243.51381	38.04552	-461.85095	-154.06956	13.88102	147.39003	267.79733	21.29380	116.91456	52.35279	743.63074	-719.69049	-50.89807	607.29065	-477.49750	104.69678	613.60663	-483.46896	-22.28383	548.83105	404.20184	126.43388	543.69312	401.00952	
6132	61.310	-163.55385	144.47491	-414.34100	243.32217	38.03272	-462.02603	-154.21170	14.07598	147.33791	267.65497	21.38808	116.80846	53.74046	742.44067	-721.49524	-51.54797	606.96796	-477.34586	104.19194	613.30640	-483.37625	-23.31851	549.09021	404.38913	125.85545	543.85999	401.20889	
6133	61.320	-162.11234	143.95880	-420.06534	243.13310	38.02286	-462.21378	-154.34485	14.33963	147.23943	267.42545	21.55315	116.75846	55.40518	741.27246	-723.65198	-51.95135	606.69934	-477.29968	103.80473	612.97095	-483.43918	-24.25884	549.38452	404.51395	122.13192	544.67963	401.23254	
6134	61.330	-160.49658	137.54013	-425.08881	242.94681	38.01568	-462.41348	-154.44545	14.43727	147.06514	267.25320	22.01261	116.83394	56.04410	740.42096	-725.50739	-52.30277	606.38672	-477.33975	103.49824	612.39557	-483.03888	-25.17984	549.75427	404.55273	121.34863	545.11572	401.40598	
6135	61.340	-159.22427	126.77620	-428.67715	242.76346	38.01096	-462.62469	-154.49870	14.40935	146.95221	267.14124	22.26618	116.76011	56.26965	740.11237	-727.10834	-52.20639	605.66968	-477.46872	103.55894	611.97046	-483.10910	-26.51597	550.06549	404.49591	119.87718	545.50439	401.65082	
6136	61.350	-159.61224	114.10439	-429.77261	242.58319	38.00845	-462.84671	-154.56178	14.29065	146.82033	267.07480	22.38397	116.78356	55.93153	740.02209	-728.54913	-52.22422	604.75360	-477.52878	103.60220	611.53748	-483.02679	-27.98394	550.28851	404.42673	118.37099	545.79639	401.56174	
6137	61.360	-159.28905	102.92194	-429.25305	242.40622	38.00790	-463.07901	-154.55167	14.07651	146.72017	267.05527	22.65459	116.87206	55.48269	740.19543	-729.40063	-52.29068	603.99701	-478.12610	102.97152	610.78589	-483.25311	-29.34191	550.32245	404.15613	117.37125	546.09979	401.56662	
6138	61.370	-159.32001	95.55706	-426.86404	242.23268	38.00907	-463.32101	-154.60202	13.98166	146.60152	266.84647	22.79413	116.90981	54.57976	740.77533	-730.45227	-52.66623	603.25092	-478.55682	103.20771	609.88220	-483.39453	-30.76280	550.29718	403.73642	116.06873	546.32599	401.47870	
